# xmcd CD database file
#
# Track frame offsets:
#	150
#	11755
#	21667
#	33462
#	47275
#	57710
#	69280
#	80577
#	91897
#	103245
#	113752
#	126405
#
# Disc length: 1830 seconds
#
# Revision: 1
# Processed by: cddbd v1.5.2PL0 Copyright (c) Steve Scherf et al.
# Submitted via: CDex 1.51
#
DISCID=a307240c
DTITLE=Patsy Cline - Classics
DYEAR=1995
DGENRE=Country
TTITLE0=Walkin' After Midnight (2:31)
TTITLE1=I'm Blue Again (2:04)
TTITLE2=A Poor Man's Roses (2:33)
TTITLE3=A Church, A Courtroom, and then Goodbye (3:03)
TTITLE4=Too Many Secrets (2:16)
TTITLE5=That Wonderful Someone (2:30)
TTITLE6=Just Out Of Reach (2:29)
TTITLE7=Hungry For Love (2:28)
TTITLE8=Cry Not For Me (2:30)
TTITLE9=Lovesick Blues (2:17)
TTITLE10=Fingerprints (2:45)
TTITLE11=Stop The World (2:25)
EXTD=YEAR: 1995
EXTT0=
EXTT1=
EXTT2=
EXTT3=
EXTT4=
EXTT5=
EXTT6=
EXTT7=
EXTT8=
EXTT9=
EXTT10=
EXTT11=
PLAYORDER=
